<svg width="436" height="194" viewBox="0 0 436 194" fill="none" xmlns="http://www.w3.org/2000/svg">
<path fill-rule="evenodd" clip-rule="evenodd" d="M312.342 4.04632C325.583 4.04632 326.806 19.22 317.23 39.4516C305.822 63.324 288.914 87.3984 257.336 116.734C258.558 127.254 263.244 133.93 271.19 133.93C278.448 133.93 284.914 131.454 294.608 123.209C294.37 112.35 297.875 98.2997 305.21 82.3405C319.471 51.3871 343.918 27.1106 360.013 27.1106C371.013 27.1106 372.03 41.8788 363.272 60.4913C354.92 78.0922 337.399 100.751 314.174 120.781C314.583 129.075 317.637 133.93 323.342 133.93C335.157 133.93 346.972 119.565 359.196 96.5026C364.289 86.7924 368.975 77.8902 375.087 67.7744C376.513 65.3472 379.162 64.3356 389.143 64.3356C391.792 64.3356 392.606 64.9416 392.606 66.3587C392.606 67.7744 391.589 69.9995 386.087 82.1385C380.791 93.4679 376.513 102.774 372.438 111.473C367.55 121.791 368.975 126.849 372.847 126.849C379.774 126.849 396.478 106.416 418.48 67.7744C419.904 65.3472 422.554 64.3356 432.536 64.3356C435.183 64.3356 436 64.9416 436 66.3587C436 67.7744 435.183 69.9995 429.48 82.1385C423.477 94.9785 417.009 108.713 410.46 122.504L408.146 127.372C398.109 148.465 387.989 169.456 379.162 187.34C376.921 191.994 373.05 193.611 363.475 193.611C361.03 193.611 359.604 192.6 359.604 190.982C359.604 190.907 359.606 190.83 359.61 190.75L359.62 190.628C359.693 189.772 360.086 188.487 361.729 184.656L361.978 184.077C363.099 181.487 364.741 177.832 367.142 172.572C373.864 158.006 381.606 141.618 389.347 125.231C375.495 137.774 367.142 143.034 360.419 143.034C352.271 143.034 348.4 135.145 348.807 125.433C335.973 140.809 325.788 146.474 315.397 146.474C305.176 146.474 298.698 141.433 296.013 132.707C283.949 143.117 274.465 146.474 263.245 146.474C250.889 146.474 242.708 139.468 239.229 127.994C225.77 141.412 216.705 145.463 208.039 145.463C198.871 145.463 192.759 139.999 191.537 132.514C179.72 142.224 171.573 146.474 164.849 146.474C150.589 146.474 146.922 127.86 155.682 109.046C168.924 80.7229 195.612 63.5261 215.372 63.5261C225.762 63.5261 231.466 68.786 231.466 74.0459C231.466 78.2942 227.799 82.1385 222.298 82.1385C216.595 82.1385 211.91 77.2827 210.891 72.0228C198.668 73.2363 186.444 87.1965 177.276 106.416C167.498 127.254 169.534 133.324 174.627 133.324C184.61 133.324 194.388 113.7 207.427 94.2775C209.057 91.8503 212.113 90.8387 221.688 90.8387C224.337 90.8387 225.15 91.4448 225.15 92.6584C225.15 93.7741 224.118 96.0876 219.202 105.886L218.67 106.945C218.397 107.489 218.112 108.054 217.817 108.642C211.705 120.781 210.074 124.421 210.074 127.86C210.074 130.895 211.501 132.716 214.761 132.716C219.998 132.716 226.362 129.926 237.559 119.166C236.358 106.076 239.73 89.3146 248.171 71.2132C264.264 36.4169 294.822 4.04632 312.342 4.04632ZM134.905 0C177.277 0 194.799 24.8855 183.594 48.5543C176.464 64.1336 155.888 76.271 127.368 81.9365C142.442 94.0754 147.535 110.665 140.405 125.838C134.293 138.987 120.847 146.474 103.327 146.474C89.8818 146.474 81.1225 139.797 81.1225 130.087C81.1225 125.029 85.4004 120.781 90.4935 120.781C95.7901 120.781 100.068 125.838 100.068 131.502C100.068 133.728 99.4563 135.953 98.6426 137.976C108.014 138.381 116.366 132.11 121.866 120.577C127.978 107.63 123.292 90.4332 111.07 81.5309C109.643 80.5209 109.236 79.5093 109.236 78.6997C109.236 77.4861 110.051 76.4745 112.698 76.069C133.274 73.2363 155.276 58.6701 162.203 43.4979C171.371 24.0759 157.722 9.50976 125.737 9.50976C89.2715 9.50976 45.8788 38.6421 21.0249 92.4563C7.17243 121.589 9.00475 147.484 27.3401 147.484C61.3617 147.484 65.843 24.4799 128.59 25.4915C130.627 25.4915 131.034 28.3242 129.2 28.9318C81.7327 45.5211 86.8259 157.398 30.1925 157.398C1.67093 157.398 -10.1443 122.6 10.2268 79.5093C31.618 33.9882 81.3259 0 134.905 0ZM357.159 37.0229C350.437 37.0229 335.157 55.6354 325.583 76.271C320.083 88.41 316.415 99.7394 314.99 109.248C328.842 95.8951 346.972 71.2131 354.104 56.0409C359.604 44.104 361.03 37.0229 357.159 37.0229ZM311.12 13.9601C301.951 13.9601 279.338 41.6768 267.522 67.1683C261.207 80.7229 257.745 94.4795 256.929 105.809C275.468 86.5888 297.063 56.647 307.452 34.9998C313.768 21.4452 314.99 13.9601 311.12 13.9601Z" fill="currentColor"/>
</svg>
