<svg width="1430" height="344" viewBox="0 0 1430 344" fill="none" xmlns="http://www.w3.org/2000/svg">
<path fill-rule="evenodd" clip-rule="evenodd" d="M0 333.498V98.4981L142 35.9981C142 35.9981 211 2.00195 247 2H308C308 2 346 6 346 10H532L552 89L575.5 10H769V22.5C769 22.5 816.5 3.5 847.5 3.5H933.5C995.5 3.5 1049.5 35 1062.5 52.5C1107.07 18.4884 1136.32 8.56947 1193 1V1C1255.48 1 1322.69 -1.26305 1374.78 33.24C1403.85 52.4949 1418.51 79.3841 1429.5 121.5V334H1329L1322 327C1262.5 356 1122 346 1067.5 297.5C1038.5 345 833.5 357.5 771.5 323V332.5L0 333.498ZM19.5 157.5V116C116.986 68.3354 174.691 38.6622 232.5 29.5L19.5 157.5ZM19.5 254.5V178.5L242.5 27H271L19.5 254.5ZM19.5 307V282L277.5 27C296.858 26.7888 301.825 27.1969 308 29.5L191 307H19.5ZM339 304.5H220.5L315.5 31.5C326.944 32.6261 332.804 33.702 339 39V304.5ZM357 304.5V37.5H508L550.5 189L594.5 37.5H743V85.5C763.96 38.8849 801.304 27.5783 904 28.5C1009.5 28.5 1049.9 52.4754 1058.5 97V115H940.5C936.5 74 832.5 81 853 118.5C944.5 138 1024 135 1058.5 169.5C1066.39 67.6166 1102.36 32.8365 1248 28.5C1358.4 33.5368 1392.11 56.9236 1412 128H1293.5C1274 60.5 1130 89.5 1173.5 213C1205 264.5 1284.5 249.5 1305 213H1258.5V154.5H1412V305H1364.5L1353 281.5C1301 327 1123 334 1073.5 243.5C1041.5 349 771.5 327.75 741 263V304.5H647.5L645.5 116.5L588.5 304.5H509.5L454 120.5V304.5H357Z" fill="#FF0000"/>
<path d="M741 145.5V223.5H859C870 263 950.5 256 950.5 223.5C950.5 185.5 766 218 741 145.5Z" fill="#FF0000"/>
</svg>
