<svg width="485" height="187" viewBox="0 0 485 187" fill="none" xmlns="http://www.w3.org/2000/svg">
<g clip-path="url(#clip0_1236_5)">
<path d="M418.199 0.0507812C381.799 0.0507812 352.199 29.5508 352.199 65.9508C352.199 102.351 381.699 131.851 418.199 131.851C454.599 131.851 484.099 102.351 484.099 65.9508C484.099 29.5508 454.599 0.0507812 418.199 0.0507812Z" fill="#C8DE47"/>
<path d="M25.199 3.35156V42.8516H0V80.0506H25.199V184.551H73.9V80.0506H99.1V42.8516H73.9V3.35156H25.199ZM106.1 42.8516V184.652H154.8L154.9 120.552C154.9 100.652 165.5 92.0516 191.5 92.0516H199.2V42.8526H193.7C175.3 42.8526 161.5 48.5506 151.1 66.7506V42.8526L106.1 42.8516ZM206.3 42.8516V134.351C206.3 167.351 228.2 186.651 258.8 186.651C270.5 186.651 290.8 184.151 300.5 163.651V184.751H345.5V42.8506L297 42.8516V116.851C297 128.451 291.4 141.251 275.7 141.251C259.5 141.251 254.4 128.051 254.4 117.051L254.5 42.8516H206.3Z" fill="black"/>
<path d="M375.199 54.0506L377.199 42.8516H417.599L415.699 54.0506H402.299L395.699 92.0506H382.699L389.299 54.0506H375.199Z" fill="black"/>
<path d="M425.599 92.0506L420.599 42.8516H433.199L435.799 76.1506L452.999 42.8516H466.699L440.099 92.0506H425.599Z" fill="black"/>
</g>
<defs>
<clipPath id="clip0_1236_5">
<rect width="484.1" height="186.6" fill="white"/>
</clipPath>
</defs>
</svg>
