<svg width="268" height="98" viewBox="0 0 268 98" fill="none" xmlns="http://www.w3.org/2000/svg">
<path d="M227.178 39.9387C225.278 44.7387 223.478 49.4387 221.578 54.1387C216.778 66.4387 211.878 78.8387 207.078 91.1387C205.278 95.6387 200.878 98.3387 195.978 97.7387C191.378 97.2387 187.778 94.0387 186.678 89.2387C186.178 87.1387 186.478 85.1387 187.278 83.1387C195.778 61.4387 204.278 39.8387 212.878 18.1387C214.378 14.3387 215.878 10.6387 217.278 6.83874C218.878 2.83874 222.678 0.238743 226.778 0.0387433C231.578 -0.161257 235.578 2.83874 237.178 6.73874C246.978 31.8387 256.878 56.8387 266.778 81.9387C267.478 83.7387 267.978 85.5387 267.978 87.4387C267.978 91.9387 264.678 96.1387 260.478 97.3387C254.878 98.9387 249.378 96.0387 247.178 90.4387C240.678 73.7387 234.078 57.0387 227.478 40.3387C227.378 40.2387 227.278 40.1387 227.178 39.9387Z" fill="#172542"/>
<path d="M138.078 57.9379C139.178 55.1379 140.178 52.5379 141.278 49.9379C146.878 35.5379 152.578 21.2379 158.178 6.8379C159.878 2.4379 164.178 -0.3621 168.978 0.0379001C174.878 0.5379 178.978 5.4379 178.778 11.0379C178.678 13.6379 177.578 15.9379 176.578 18.2379C167.178 42.2379 157.778 66.1379 148.378 90.1379C146.978 93.7379 144.778 96.2379 141.078 97.4379C135.578 99.1379 130.078 96.2379 127.978 90.7379C121.978 75.4379 115.978 60.1379 109.978 44.8379C106.078 34.8379 102.078 24.8379 98.1779 14.8379C95.6779 8.6379 99.1779 1.9379 105.678 0.3379C110.678 -0.8621 115.978 1.8379 117.978 6.7379C123.678 21.1379 129.378 35.6379 135.078 50.1379C135.978 52.5379 136.978 55.1379 138.078 57.9379Z" fill="#172542"/>
<path d="M29.9762 22.6379H28.6762C22.7762 22.6379 16.9762 22.6379 11.0762 22.6379C5.57615 22.6379 1.57615 19.4379 0.276151 14.0379C-1.12385 8.63789 2.97615 2.43789 8.57615 1.53789C9.37615 1.43789 10.1762 1.33789 10.9762 1.33789C30.9762 1.33789 50.8762 1.33789 70.8762 1.33789C76.1762 1.33789 80.6762 5.63789 81.2762 10.8379C81.7762 16.4379 78.1761 21.3379 72.5761 22.4379C71.6761 22.6379 70.7762 22.6379 69.8762 22.6379C64.1762 22.6379 58.4762 22.6379 52.6762 22.6379H51.3762V23.9379C51.3762 44.9379 51.3762 65.8379 51.3762 86.8379C51.3762 91.9379 47.5762 96.3379 42.4762 97.2379C37.1762 98.2379 31.4762 94.7379 30.1762 88.7379C29.9762 88.0379 29.9762 87.0379 29.9762 86.1379C29.9762 65.4379 29.9762 44.7379 29.9762 24.1379V22.6379Z" fill="#172542"/>
</svg>
